[img]http://img176.imageshack.us/img176/4513/mysoultotake.jpg[/img]

General

Complete name : My Soul to Take.2010.CAM.LU.avi

Format : AVI

Format/Info : Audio Video Interleave

File size : 701 MiB

Duration : 1h 37mn

Overall bit rate : 1 005 Kbps

Writing application : VirtualDubMod 1.5.10.2 (build 2540/release)

Writing library : VirtualDub build 32706/release



Video

ID : 0

Format : MPEG-4 Visual

Format profile : Advanced Simple@L5

Format settings, BVOP : Yes

Format settings, QPel : No

Format settings, GMC : No warppoints

Format settings, Matrix : Default (H.263)

Codec ID : XVID

Codec ID/Hint : XviD

Duration : 1h 37mn

Bit rate : 867 Kbps

Width : 720 pixels

Height : 272 pixels

Display aspect ratio : 2.647

Frame rate : 25.000 fps

Color space : YUV

Chroma subsampling : 4:2:0

Bit depth : 8 bits

Scan type : Progressive

Bits/(Pixel*Frame) : 0.177

Stream size : 605 MiB (86%)

Writing library : XviD 1.2.1 (UTC 2008-12-04)



Audio

ID : 1

Format : MPEG Audio

Format version : Version 1

Format profile : Layer 3

Mode : Joint stereo

Mode extension : MS Stereo

Codec ID : 55

Codec ID/Hint : MP3

Duration : 1h 37mn

Bit rate mode : Constant

Bit rate : 128 Kbps

Channel(s) : 2 channels

Sampling rate : 44.1 KHz

Stream size : 89.3 MiB (13%)

Alignment : Split accross interleaves

Interleave, duration : 40 ms (1.00 video frame)

Interleave, preload duration : 500 ms



notes



RUSSIAN VIDEO THANKS



AUDIO IS ENGLISH AND MINE LU



ALL I DID WAS PUT MY AUDIO TO THE RUSSIAN VIDEO AND I MUST SAY IT IS NICE CAM AUDIO , THE VIDEO ITS SELF IS A BIT DARK



AND THANKS TO BOOBIES FOR GETING IT OUT THERE FOR ME ( SHOW THEM TO ME )